# xmcd
#
# Track frame offsets:
#	150
#	2729
#	19954
#	34926
#	47805
#	80410
#	98724
#	125787
#	139616
#	157616
#	173016
#	197962
#	200606
#	217066
# Disc length: 3151 seconds
# Revision: 1
# Processed by: cddbd v1.5.1PL0 Copyright (c) Steve Scherf et al.
#
# Submitted via: libkcddb 0.10
#
DISCID=bf0c4d0e
DTITLE=G.Love and Special Sauce - 2004-09-07 Aragorn Ballroom Chicago IL
DYEAR=1900
DGENRE=
TTITLE0=Intro
TTITLE1=Baby's Got Sauce
TTITLE2=Gimme Some Lovin'
TTITLE3=Don't Drop It
TTITLE4=This Ain't Living
TTITLE5=Give It To You
TTITLE6=Honor and Harmony
TTITLE7=Yeah, It's That Easy
TTITLE8=Booty Call
TTITLE9=Rhyme for the Summertime
TTITLE10=Parasite
TTITLE11=Band Introductions
TTITLE12=Cold Beverage
TTITLE13=Astronaut
EXTD=
EXTT0=
EXTT1=
EXTT2=
EXTT3=
EXTT4=
EXTT5=
EXTT6=
EXTT7=
EXTT8=
EXTT9=
EXTT10=
EXTT11=
EXTT12=
EXTT13=
PLAYORDER=
